<?xml version="1.0" encoding="UTF-8" standalone="no"?>
<!DOCTYPE svg PUBLIC "-//W3C//DTD SVG 1.1//EN"
 "http://www.w3.org/Graphics/SVG/1.1/DTD/svg11.dtd">
<!-- Generated by graphviz version 2.43.0 (0)
 -->
<!-- Title: %3 Pages: 1 -->
<svg width="924pt" height="394pt"
 viewBox="0.00 0.00 924.00 394.00" xmlns="http://www.w3.org/2000/svg" xmlns:xlink="http://www.w3.org/1999/xlink">
<g id="graph0" class="graph" transform="scale(1 1) rotate(0) translate(4 390)">
<title>%3</title>
<polygon fill="white" stroke="transparent" points="-4,4 -4,-390 920,-390 920,4 -4,4"/>
<g id="clust1" class="cluster">
<title>cluster_0</title>
</g>
<!-- normal_nand -->
<g id="node1" class="node">
<title>normal_nand</title>
<text text-anchor="middle" x="71" y="-348.3" font-family="Times,serif" font-size="14.00">normal_nand</text>
</g>
<!-- 0x1e0fa60 -->
<g id="node6" class="node">
<title>0x1e0fa60</title>
<ellipse fill="none" stroke="black" cx="199" cy="-279" rx="27" ry="18"/>
<text text-anchor="middle" x="199" y="-275.3" font-family="Times,serif" font-size="14.00">a</text>
</g>
<!-- normal_nand&#45;&gt;0x1e0fa60 -->
<g id="edge1" class="edge">
<title>normal_nand&#45;&gt;0x1e0fa60</title>
<path fill="none" stroke="black" d="M101.66,-333.99C122.44,-322.47 149.73,-307.33 170.12,-296.02"/>
<polygon fill="black" stroke="black" points="171.91,-299.03 178.96,-291.12 168.52,-292.91 171.91,-299.03"/>
</g>
<!-- and_with_not -->
<g id="node2" class="node">
<title>and_with_not</title>
<text text-anchor="middle" x="199" y="-348.3" font-family="Times,serif" font-size="14.00">and_with_not</text>
</g>
<!-- and_with_not&#45;&gt;0x1e0fa60 -->
<g id="edge8" class="edge">
<title>and_with_not&#45;&gt;0x1e0fa60</title>
<path fill="none" stroke="black" d="M199,-333.81C199,-325.79 199,-316.05 199,-307.07"/>
<polygon fill="black" stroke="black" points="202.5,-307.03 199,-297.03 195.5,-307.03 202.5,-307.03"/>
</g>
<!-- iterativ_nand -->
<g id="node3" class="node">
<title>iterativ_nand</title>
<text text-anchor="middle" x="328" y="-348.3" font-family="Times,serif" font-size="14.00">iterativ_nand</text>
</g>
<!-- 0x1e10140 -->
<g id="node11" class="node">
<title>0x1e10140</title>
<ellipse fill="none" stroke="black" cx="328" cy="-279" rx="27" ry="18"/>
<text text-anchor="middle" x="328" y="-275.3" font-family="Times,serif" font-size="14.00">a</text>
</g>
<!-- iterativ_nand&#45;&gt;0x1e10140 -->
<g id="edge9" class="edge">
<title>iterativ_nand&#45;&gt;0x1e10140</title>
<path fill="none" stroke="black" d="M328,-333.81C328,-325.79 328,-316.05 328,-307.07"/>
<polygon fill="black" stroke="black" points="331.5,-307.03 328,-297.03 324.5,-307.03 331.5,-307.03"/>
</g>
<!-- diff_normal_nand_and_with_not -->
<g id="node4" class="node">
<title>diff_normal_nand_and_with_not</title>
<text text-anchor="middle" x="780" y="-348.3" font-family="Times,serif" font-size="14.00">diff_normal_nand_and_with_not</text>
</g>
<!-- 0x1e0f5a0 -->
<g id="node7" class="node">
<title>0x1e0f5a0</title>
<polygon fill="none" stroke="black" points="498,-36 444,-36 444,0 498,0 498,-36"/>
<text text-anchor="middle" x="471" y="-14.3" font-family="Times,serif" font-size="14.00">0</text>
</g>
<!-- diff_normal_nand_and_with_not&#45;&gt;0x1e0f5a0 -->
<g id="edge14" class="edge">
<title>diff_normal_nand_and_with_not&#45;&gt;0x1e0f5a0</title>
<path fill="none" stroke="black" d="M696.78,-333.97C628.49,-318.8 543,-296.51 543,-280 543,-280 543,-280 543,-104 543,-79.01 524.66,-57.59 506.49,-42.51"/>
<polygon fill="black" stroke="black" points="508.25,-39.44 498.22,-36.03 503.94,-44.95 508.25,-39.44"/>
</g>
<!-- diff_normal_nand_iterativ_nand -->
<g id="node5" class="node">
<title>diff_normal_nand_iterativ_nand</title>
<text text-anchor="middle" x="522" y="-348.3" font-family="Times,serif" font-size="14.00">diff_normal_nand_iterativ_nand</text>
</g>
<!-- 0x1e0f660 -->
<g id="node13" class="node">
<title>0x1e0f660</title>
<ellipse fill="none" stroke="black" cx="471" cy="-105" rx="27" ry="18"/>
<text text-anchor="middle" x="471" y="-101.3" font-family="Times,serif" font-size="14.00">c</text>
</g>
<!-- diff_normal_nand_iterativ_nand&#45;&gt;0x1e0f660 -->
<g id="edge15" class="edge">
<title>diff_normal_nand_iterativ_nand&#45;&gt;0x1e0f660</title>
<path fill="none" stroke="black" d="M518.41,-333.77C509.65,-291.67 487.1,-183.33 476.57,-132.76"/>
<polygon fill="black" stroke="black" points="479.98,-131.96 474.51,-122.88 473.13,-133.39 479.98,-131.96"/>
</g>
<!-- 0x1e13430 -->
<g id="node8" class="node">
<title>0x1e13430</title>
<polygon fill="none" stroke="black" points="327,-36 273,-36 273,0 327,0 327,-36"/>
<text text-anchor="middle" x="300" y="-14.3" font-family="Times,serif" font-size="14.00">1</text>
</g>
<!-- 0x1e0fa60&#45;&gt;0x1e13430 -->
<g id="edge7" class="edge">
<title>0x1e0fa60&#45;&gt;0x1e13430</title>
<path fill="none" stroke="red" d="M200.49,-261.03C202.7,-240.1 207.72,-203.66 218,-174 234.63,-126.04 264.38,-74.79 283.11,-44.89"/>
<polygon fill="red" stroke="red" points="286.14,-46.65 288.54,-36.33 280.23,-42.9 286.14,-46.65"/>
<text text-anchor="middle" x="235" y="-144.8" font-family="Times,serif" font-size="14.00">0</text>
</g>
<!-- 0x1e0fba0 -->
<g id="node10" class="node">
<title>0x1e0fba0</title>
<ellipse fill="none" stroke="black" cx="254" cy="-192" rx="27" ry="18"/>
<text text-anchor="middle" x="254" y="-188.3" font-family="Times,serif" font-size="14.00">b</text>
</g>
<!-- 0x1e0fa60&#45;&gt;0x1e0fba0 -->
<g id="edge6" class="edge">
<title>0x1e0fa60&#45;&gt;0x1e0fba0</title>
<path fill="none" stroke="black" d="M209.35,-262.01C217.49,-249.43 228.97,-231.68 238.26,-217.33"/>
<polygon fill="black" stroke="black" points="241.21,-219.21 243.7,-208.92 235.33,-215.41 241.21,-219.21"/>
<text text-anchor="middle" x="234" y="-231.8" font-family="Times,serif" font-size="14.00">1</text>
</g>
<!-- 0x1e0f7b0 -->
<g id="node9" class="node">
<title>0x1e0f7b0</title>
<ellipse fill="none" stroke="black" cx="366" cy="-105" rx="27" ry="18"/>
<text text-anchor="middle" x="366" y="-101.3" font-family="Times,serif" font-size="14.00">c</text>
</g>
<!-- 0x1e0f7b0&#45;&gt;0x1e0f5a0 -->
<g id="edge2" class="edge">
<title>0x1e0f7b0&#45;&gt;0x1e0f5a0</title>
<path fill="none" stroke="black" d="M382.87,-90.34C398.8,-77.45 423.01,-57.85 442.03,-42.45"/>
<polygon fill="black" stroke="black" points="444.25,-45.16 449.82,-36.15 439.85,-39.72 444.25,-45.16"/>
<text text-anchor="middle" x="429" y="-57.8" font-family="Times,serif" font-size="14.00">1</text>
</g>
<!-- 0x1e0f7b0&#45;&gt;0x1e13430 -->
<g id="edge3" class="edge">
<title>0x1e0f7b0&#45;&gt;0x1e13430</title>
<path fill="none" stroke="red" d="M353.65,-88.73C348.74,-82.62 343.07,-75.5 338,-69 331.8,-61.04 325.11,-52.31 319.11,-44.39"/>
<polygon fill="red" stroke="red" points="321.74,-42.07 312.91,-36.21 316.15,-46.29 321.74,-42.07"/>
<text text-anchor="middle" x="343" y="-57.8" font-family="Times,serif" font-size="14.00">0</text>
</g>
<!-- 0x1e0fba0&#45;&gt;0x1e13430 -->
<g id="edge5" class="edge">
<title>0x1e0fba0&#45;&gt;0x1e13430</title>
<path fill="none" stroke="red" d="M258.49,-174.19C266.48,-144.34 283.19,-81.84 292.8,-45.93"/>
<polygon fill="red" stroke="red" points="296.22,-46.69 295.42,-36.13 289.45,-44.88 296.22,-46.69"/>
<text text-anchor="middle" x="286" y="-101.3" font-family="Times,serif" font-size="14.00">0</text>
</g>
<!-- 0x1e0fba0&#45;&gt;0x1e0f7b0 -->
<g id="edge4" class="edge">
<title>0x1e0fba0&#45;&gt;0x1e0f7b0</title>
<path fill="none" stroke="black" d="M271.5,-177.72C289.99,-163.68 319.34,-141.41 340.43,-125.41"/>
<polygon fill="black" stroke="black" points="342.77,-128.02 348.62,-119.19 338.54,-122.45 342.77,-128.02"/>
<text text-anchor="middle" x="321" y="-144.8" font-family="Times,serif" font-size="14.00">1</text>
</g>
<!-- 0x1e10140&#45;&gt;0x1e0f7b0 -->
<g id="edge13" class="edge">
<title>0x1e10140&#45;&gt;0x1e0f7b0</title>
<path fill="none" stroke="red" d="M339,-262.39C347.64,-249.14 359.02,-229.27 364,-210 370.55,-184.69 370.33,-154.75 368.9,-133.51"/>
<polygon fill="red" stroke="red" points="372.37,-132.95 368.08,-123.26 365.39,-133.51 372.37,-132.95"/>
<text text-anchor="middle" x="374" y="-188.3" font-family="Times,serif" font-size="14.00">0</text>
</g>
<!-- 0x1e0ff90 -->
<g id="node12" class="node">
<title>0x1e0ff90</title>
<ellipse fill="none" stroke="black" cx="328" cy="-192" rx="27" ry="18"/>
<text text-anchor="middle" x="328" y="-188.3" font-family="Times,serif" font-size="14.00">b</text>
</g>
<!-- 0x1e10140&#45;&gt;0x1e0ff90 -->
<g id="edge12" class="edge">
<title>0x1e10140&#45;&gt;0x1e0ff90</title>
<path fill="none" stroke="black" d="M328,-260.8C328,-249.16 328,-233.55 328,-220.24"/>
<polygon fill="black" stroke="black" points="331.5,-220.18 328,-210.18 324.5,-220.18 331.5,-220.18"/>
<text text-anchor="middle" x="333" y="-231.8" font-family="Times,serif" font-size="14.00">1</text>
</g>
<!-- 0x1e0ff90&#45;&gt;0x1e13430 -->
<g id="edge10" class="edge">
<title>0x1e0ff90&#45;&gt;0x1e13430</title>
<path fill="none" stroke="black" d="M320.33,-174.58C317.94,-168.82 315.53,-162.23 314,-156 304.83,-118.7 301.65,-74.25 300.56,-46.33"/>
<polygon fill="black" stroke="black" points="304.05,-46.01 300.23,-36.13 297.06,-46.24 304.05,-46.01"/>
<text text-anchor="middle" x="312" y="-101.3" font-family="Times,serif" font-size="14.00">1</text>
</g>
<!-- 0x1e0ff90&#45;&gt;0x1e0f7b0 -->
<g id="edge11" class="edge">
<title>0x1e0ff90&#45;&gt;0x1e0f7b0</title>
<path fill="none" stroke="red" d="M335.54,-174.64C338.23,-168.77 341.27,-162.1 344,-156 347.49,-148.21 351.25,-139.72 354.65,-131.98"/>
<polygon fill="red" stroke="red" points="357.91,-133.26 358.73,-122.69 351.5,-130.45 357.91,-133.26"/>
<text text-anchor="middle" x="355" y="-144.8" font-family="Times,serif" font-size="14.00">0</text>
</g>
<!-- 0x1e0f660&#45;&gt;0x1e0f5a0 -->
<g id="edge17" class="edge">
<title>0x1e0f660&#45;&gt;0x1e0f5a0</title>
<path fill="none" stroke="red" d="M471,-86.8C471,-75.16 471,-59.55 471,-46.24"/>
<polygon fill="red" stroke="red" points="474.5,-46.18 471,-36.18 467.5,-46.18 474.5,-46.18"/>
<text text-anchor="middle" x="476" y="-57.8" font-family="Times,serif" font-size="14.00">0</text>
</g>
<!-- 0x1e0f660&#45;&gt;0x1e13430 -->
<g id="edge16" class="edge">
<title>0x1e0f660&#45;&gt;0x1e13430</title>
<path fill="none" stroke="black" d="M449.53,-93.88C434.95,-86.96 415.26,-77.54 398,-69 377.5,-58.86 354.73,-47.26 336.3,-37.79"/>
<polygon fill="black" stroke="black" points="337.86,-34.66 327.37,-33.19 334.66,-40.88 337.86,-34.66"/>
<text text-anchor="middle" x="403" y="-57.8" font-family="Times,serif" font-size="14.00">1</text>
</g>
</g>
</svg>
